<svg width="67" height="41" viewBox="0 0 67 41" fill="none" xmlns="http://www.w3.org/2000/svg">
  <path
    d="M13.5541 2.40106C17.8284 0.672937 22.6823 0.545602 27.0472 1.98267C29.13 2.67392 31.068 3.71079 32.8429 5.02052C31.4483 6.33025 30.2348 7.8037 29.1481 9.38629C26.9023 7.69455 24.1131 6.74864 21.2877 6.67587C18.2269 6.56673 15.1298 7.51265 12.6485 9.31353C9.9318 11.2781 7.95764 14.225 7.16073 17.463C6.38193 20.61 6.65361 24.0298 7.99386 26.9767C9.29789 29.8872 11.6162 32.3248 14.4597 33.78C16.941 35.0534 19.8026 35.5445 22.5737 35.2171C25.9605 34.8169 29.1844 33.1252 31.4483 30.5785C34.2918 27.4315 35.6683 22.9384 34.8895 18.7545C34.8171 18.227 34.6178 17.6994 34.7808 17.1901C35.4691 15.0254 36.7007 13.0426 38.3307 11.46C40.6128 15.7349 41.301 20.8646 40.1781 25.5942C38.9465 30.9787 35.3423 35.7628 30.5427 38.4369C27.1921 40.3469 23.28 41.22 19.4585 40.9472C15.5283 40.6743 11.7067 39.1827 8.60965 36.7269C5.16846 33.9983 2.63284 30.1237 1.58237 25.8489C0.405123 21.1557 1.02092 16.0441 3.24863 11.7511C5.44013 7.54903 9.153 4.16555 13.5541 2.40106ZM34.7989 5.23881C38.5299 2.27372 43.3476 0.7457 48.0747 1.03675C52.9829 1.27323 57.7825 3.47431 61.1875 7.0215C64.8098 10.7324 66.8745 15.8986 66.8202 21.1011C66.8564 27.4497 63.6144 33.7073 58.4345 37.3272C53.2727 41.0563 46.2817 41.9841 40.2867 39.8557C38.3669 39.1827 36.5739 38.1822 34.9801 36.9452C36.3746 35.6537 37.6606 34.2348 38.6567 32.5976C40.9206 34.253 43.6555 35.2353 46.4447 35.3081C49.6323 35.4354 52.8743 34.4349 55.428 32.5249C57.9817 30.633 59.9015 27.8499 60.7166 24.7574C61.6221 21.374 61.2418 17.6813 59.6842 14.5525C58.3258 11.8238 56.0619 9.55001 53.3452 8.1857C50.8458 6.91235 47.9479 6.4212 45.1587 6.78502C42.116 7.16702 39.2363 8.62228 37.0629 10.787C34.6903 13.1336 33.187 16.317 32.8791 19.6459C32.7161 21.2284 32.8791 22.8292 33.0965 24.3936C32.6799 26.7948 31.231 28.9231 29.456 30.5421C27.5 26.9039 26.7031 22.6655 27.2283 18.5544C27.8984 13.3337 30.6695 8.44037 34.7989 5.23881Z"
    fill="#ac1991" />
</svg>